<?xml version="1.0" standalone="no"?>
<!DOCTYPE svg PUBLIC "-//W3C//DTD SVG 20010904//EN"
 "http://www.w3.org/TR/2001/REC-SVG-20010904/DTD/svg10.dtd">
<svg version="1.0" xmlns="http://www.w3.org/2000/svg"
 width="512.000000pt" height="512.000000pt" viewBox="0 0 512.000000 512.000000"
 preserveAspectRatio="xMidYMid meet">
<metadata>
Created by potrace 1.14, written by Peter Selinger 2001-2017
</metadata>
<g transform="translate(0.000000,512.000000) scale(0.100000,-0.100000)"
fill="#000000" stroke="none">
<path d="M2955 5095 c-31 -30 -33 -78 -5 -102 10 -9 92 -42 182 -73 594 -207
901 -401 964 -608 49 -166 -91 -425 -607 -1117 -323 -433 -410 -555 -549 -765
-419 -632 -568 -1078 -489 -1464 23 -112 50 -182 107 -271 130 -204 391 -374
742 -483 140 -44 320 -83 445 -97 33 -4 62 -9 65 -10 3 -2 35 -6 70 -10 240
-22 277 -22 301 1 55 55 18 133 -63 135 -24 0 -50 2 -58 4 -8 1 -55 5 -104 9
-49 4 -92 8 -95 10 -3 2 -33 6 -66 10 -33 3 -73 9 -90 12 -560 100 -927 298
-1056 570 -71 152 -83 383 -29 584 104 391 334 789 875 1515 417 559 519 705
619 883 31 55 56 102 56 105 0 3 13 35 30 70 41 90 60 176 56 268 -2 67 -8 89
-40 154 -98 198 -377 390 -816 560 -162 63 -378 135 -404 135 -9 0 -28 -11
-41 -25z"/>
<path d="M1743 5085 c-53 -23 -54 -106 -2 -132 13 -7 74 -24 134 -38 403 -93
791 -274 973 -453 80 -79 119 -141 142 -226 30 -112 8 -215 -66 -317 -82 -113
-341 -355 -708 -663 -63 -53 -120 -101 -128 -108 -7 -7 -42 -38 -78 -68 -36
-30 -85 -72 -110 -95 -57 -50 -115 -101 -210 -185 -198 -174 -467 -444 -605
-604 -359 -421 -530 -792 -512 -1114 18 -322 265 -728 612 -1007 106 -85 144
-93 183 -37 31 43 12 79 -83 155 -237 190 -419 433 -514 688 -78 207 -55 428
71 688 156 320 450 663 972 1136 6 6 45 39 86 75 41 36 77 68 80 71 3 3 59 52
125 108 66 56 134 114 150 129 17 15 71 61 120 102 50 41 92 77 95 80 3 3 37
32 75 65 219 187 414 376 492 480 156 205 161 450 13 650 -117 158 -333 310
-600 423 -170 72 -421 153 -579 188 -35 7 -71 16 -80 18 -9 3 -30 -1 -48 -9z"/>
<path d="M1434 4587 c-43 -50 -94 -113 -194 -237 -102 -127 -113 -161 -64
-199 52 -41 79 -28 166 79 20 25 46 56 57 70 l20 25 1 -69 0 -68 -79 -102
c-44 -55 -88 -110 -98 -121 -52 -56 -93 -120 -93 -145 0 -55 58 -93 104 -68
26 14 29 17 100 106 32 39 60 72 62 72 2 0 4 -30 4 -67 l0 -68 -135 -167
c-107 -133 -135 -173 -135 -197 0 -29 28 -69 50 -72 6 -1 16 -2 23 -3 26 -4
58 22 116 94 33 41 61 78 61 83 0 4 5 7 10 7 6 0 10 -68 10 -184 0 -179 1
-186 23 -212 30 -34 79 -37 109 -6 20 20 22 32 24 209 1 103 2 190 3 192 2 6
27 -23 89 -101 50 -64 64 -74 111 -83 22 -4 71 45 71 71 0 29 -36 79 -233 318
-18 22 -35 46 -38 55 -7 20 -5 114 2 121 3 3 37 -33 75 -79 72 -88 104 -108
149 -91 14 5 28 23 35 44 13 40 3 66 -49 126 -17 19 -34 40 -39 45 -4 6 -46
57 -92 115 l-85 104 0 68 c-1 37 1 68 4 68 3 -1 35 -38 71 -83 80 -99 105
-116 148 -98 37 16 59 62 45 94 -9 18 -100 137 -171 222 -9 11 -37 45 -61 75
-62 77 -79 90 -116 90 -25 0 -40 -8 -61 -33z"/>
<path d="M4014 2992 c-12 -9 -61 -66 -110 -127 -49 -60 -96 -119 -106 -130
-27 -32 -139 -173 -185 -233 -47 -61 -54 -97 -25 -131 32 -38 87 -33 123 13 9
12 29 35 43 51 14 17 70 85 123 152 54 67 100 122 103 123 3 0 4 -76 3 -170
l-2 -170 -48 -58 c-26 -32 -61 -75 -78 -96 -16 -21 -85 -106 -153 -190 -68
-83 -126 -162 -129 -175 -16 -63 45 -113 103 -85 16 9 88 90 163 185 74 93
136 167 138 165 3 -3 6 -224 4 -303 -1 -25 -38 -77 -196 -272 -106 -132 -199
-249 -205 -260 -28 -53 6 -111 65 -111 38 0 50 12 214 217 63 79 117 141 119
138 3 -2 4 -147 4 -322 -1 -192 3 -331 9 -350 17 -54 91 -64 129 -18 13 15 15
74 15 351 0 183 2 334 5 337 3 2 61 -65 130 -150 160 -198 165 -203 206 -203
37 0 74 37 74 76 0 15 -51 87 -142 201 -78 98 -144 180 -148 183 -3 3 -33 38
-65 79 l-59 74 -1 156 c-1 86 1 162 3 168 2 7 34 -24 70 -70 36 -45 69 -84 72
-87 3 -3 27 -32 53 -65 103 -132 121 -144 175 -118 50 24 54 87 10 135 -7 7
-40 47 -73 88 -34 41 -117 144 -185 229 l-124 154 -1 161 c-1 89 0 164 2 169
3 4 67 -71 143 -166 129 -161 165 -196 198 -191 6 1 16 2 22 3 20 2 50 46 50
72 0 24 -138 205 -348 458 -21 24 -46 56 -57 72 -23 32 -65 59 -92 59 -10 0
-27 -8 -39 -18z"/>
</g>
</svg>
